<?xml version="1.0" standalone="no"?>
<!DOCTYPE svg PUBLIC "-//W3C//DTD SVG 20010904//EN"
 "http://www.w3.org/TR/2001/REC-SVG-20010904/DTD/svg10.dtd">
<svg version="1.0" xmlns="http://www.w3.org/2000/svg"
 width="247.000000pt" height="247.000000pt" viewBox="0 0 247.000000 247.000000"
 preserveAspectRatio="xMidYMid meet">
<metadata>
Created by potrace 1.11, written by Peter Selinger 2001-2013
</metadata>
<g transform="translate(0.000000,247.000000) scale(0.100000,-0.100000)"
fill="#000000" stroke="none">
<path d="M19 2353 c-3 -37 -3 -73 1 -74 3 0 38 -2 78 -4 160 -7 218 -40 249
-143 17 -53 18 -124 18 -907 0 -810 -1 -852 -19 -885 -35 -67 -80 -102 -169
-134 -11 -3 -42 -9 -70 -12 -29 -4 -59 -8 -67 -10 -8 -1 -21 -3 -27 -3 -8 -1
-13 -16 -13 -40 l0 -39 434 0 c476 -1 448 -4 438 55 -3 17 -12 23 -31 24 -14
0 -35 2 -46 4 -11 2 -40 7 -65 10 -134 20 -224 89 -255 196 -17 60 -18 117
-19 912 -1 466 1 847 4 847 3 0 30 -35 60 -76 30 -42 65 -88 78 -103 12 -14
35 -44 50 -65 15 -22 118 -162 230 -310 112 -149 212 -282 222 -296 30 -41
799 -1069 857 -1147 52 -69 57 -73 94 -73 l39 0 0 958 c1 526 3 975 6 997 9
68 48 141 91 169 62 41 157 69 251 75 19 1 22 7 22 41 l0 40 -430 0 -430 0 0
-43 c0 -41 1 -43 33 -43 159 -3 279 -47 329 -121 40 -61 41 -83 42 -835 1
-401 -1 -728 -4 -728 -3 1 -303 399 -668 885 l-662 885 -325 0 c-179 0 -325
-3 -326 -7z"/>
</g>
</svg>
